<svg width="120" height="120" viewBox="0 0 120 120" fill="none" xmlns="http://www.w3.org/2000/svg">
<path fill-rule="evenodd" clip-rule="evenodd" d="M70.5969 99.5481C92.4387 93.6956 105.401 71.245 99.5481 49.4032C93.6956 27.5614 71.2449 14.5995 49.4031 20.452C27.5613 26.3045 14.5995 48.7551 20.4519 70.5969C26.3044 92.4387 48.7551 105.401 70.5969 99.5481ZM72.6795 107.321C98.8139 100.318 114.323 73.4549 107.321 47.3205C100.318 21.1861 73.4549 5.67683 47.3205 12.6795C21.1861 19.6822 5.6768 46.5451 12.6795 72.6795C19.6822 98.8139 46.5451 114.323 72.6795 107.321Z" fill="url(#paint0_linear_15_2)"/>
<path d="M43.6353 33.0499L89.4576 59.5053L43.6353 85.9608L43.6353 33.0499Z" fill="url(#paint1_linear_15_2)"/>
<defs>
<linearGradient id="paint0_linear_15_2" x1="-6.67955" y1="61.6958" x2="72.4509" y2="107.382" gradientUnits="userSpaceOnUse">
<stop stop-color="#4321BF"/>
<stop offset="1" stop-color="#21BFAF"/>
</linearGradient>
<linearGradient id="paint1_linear_15_2" x1="121" y1="124" x2="2.82449" y2="107.616" gradientUnits="userSpaceOnUse">
<stop stop-color="white"/>
<stop offset="1" stop-color="#21BFAF"/>
</linearGradient>
</defs>
</svg>
